<svg 
    id="logo"
    xmlns="http://www.w3.org/2000/svg" 
    xmlns:xlink="http://www.w3.org/1999/xlink" 
    x="0px"
    y="0px"
    viewBox="0 0 512 512"
    version="1.0" 
    style="enable-background: new 0 0 512 512"
    xml:space="preserve"
    >
  <defs>
    <style>
        #logo .play {
            animation: rainbow 0.5s infinite;
        }
        @keyframes rainbow {
          0% {
            fill: #7694e4;
            transform: translateY(0%);
          }
          17% {
            fill: green;
            transform: translateY(1%);
          }
          33% {
            fill: yellow;
            transform: translateY(2%);
          }
          50% {
            fill: orange;
            transform: translateY(2.5%);
          }
          67% {
            fill: red;
            transform: translateY(2%);
          }
          83% {
            fill: hotpink;
            transform: translateY(1%);
          }
          100% {
            fill: #7694e4;
            transform: translateY(0%);
          }
        }
    </style>
    <!-- <g /> -->
    <!-- <clipPath id="796362d52d">
      <path d="M 49.378906 136.253906 L 119.878906 136.253906 L 119.878906 218.753906 L 49.378906 218.753906 Z M 49.378906 136.253906 " clip-rule="nonzero" />
    </clipPath> -->
  </defs>
  <g clip-path="url(#796362d52d)">
    <path fill="#cb6ce6" d="M 101.589844 163.699219 L 96.925781 163.699219 L 99.699219 160.492188 C 100.335938 160.644531 100.992188 160.726562 101.679688 160.726562 C 106.316406 160.726562 110.101562 156.960938 110.132812 152.324219 C 110.160156 147.660156 106.386719 143.84375 101.679688 143.824219 C 97.046875 143.824219 93.25 147.589844 93.230469 152.222656 C 93.21875 153.417969 93.464844 154.601562 93.9375 155.683594 L 87.117188 163.699219 L 84.132812 163.699219 L 75.609375 153.164062 C 76.683594 151.433594 77.269531 149.429688 77.292969 147.375 C 77.3125 144.421875 76.179688 141.636719 74.101562 139.542969 C 72.027344 137.4375 69.265625 136.273438 66.238281 136.253906 C 60.1875 136.253906 55.230469 141.183594 55.1875 147.246094 C 55.167969 150.199219 56.300781 152.984375 58.375 155.089844 C 60.449219 157.191406 63.222656 158.355469 66.238281 158.378906 C 67.027344 158.378906 67.820312 158.296875 68.578125 158.132812 L 73.0625 163.722656 L 67.34375 163.722656 C 59.257812 163.699219 49.398438 166.140625 49.398438 182.847656 L 49.398438 200.507812 C 49.398438 210.386719 57.476562 218.460938 67.351562 218.460938 L 101.589844 218.460938 C 111.457031 218.460938 119.542969 210.386719 119.542969 200.507812 L 119.542969 182.847656 C 119.542969 168 109.675781 163.699219 101.589844 163.699219 Z M 103.390625 208.089844 L 65.550781 208.089844 C 62.769531 208.089844 60.421875 205.742188 60.421875 202.957031 L 60.441406 182.847656 L 60.441406 179.78125 C 60.542969 177.078125 62.839844 174.832031 65.550781 174.832031 L 103.390625 174.832031 C 106.175781 174.832031 108.523438 177.179688 108.523438 179.964844 L 108.503906 200.082031 L 108.523438 200.082031 L 108.523438 202.957031 C 108.523438 205.742188 106.175781 208.089844 103.390625 208.089844 Z M 103.390625 208.089844 " fill-opacity="1" fill-rule="nonzero" />
  </g>
  <path 
    class="play" 
    style="fill: #ffa31a"  
    d="M 76.835938 197.410156 C 76.816406 194.152344 76.796875 188.808594 76.773438 185.550781 C 76.753906 182.292969 79.195312 180.945312 81.988281 182.554688 C 84.769531 184.175781 89.425781 186.816406 92.207031 188.433594 C 94.992188 190.054688 95.050781 192.714844 92.277344 194.363281 C 89.507812 196.015625 84.820312 198.707031 82.046875 200.347656 C 79.285156 201.996094 76.847656 200.671875 76.835938 197.410156 Z M 76.835938 197.410156 " fill-opacity="1" fill-rule="nonzero" />
  <g fill="#cb6ce6" fill-opacity="1">
    <g transform="translate(125.338604, 201.575641)">
      <g>
        <path d="M 18.90625 -12.640625 L 27.25 -37.484375 L 37.109375 -37.484375 L 23.1875 0 L 14.453125 0 L 0.53125 -37.484375 L 10.5 -37.484375 Z M 18.90625 -12.640625 " />
      </g>
    </g>
  </g>
  <g fill="#cb6ce6" fill-opacity="1">
    <g transform="translate(160.882849, 201.575641)">
      <g>
        <path d="M 12.3125 0 L 3.375 0 L 3.375 -27.84375 L 12.3125 -27.84375 Z M 12.421875 -32.125 L 3.21875 -32.125 L 3.21875 -39.296875 L 12.421875 -39.296875 Z M 12.421875 -32.125 " />
      </g>
    </g>
  </g>
  <g fill="#cb6ce6" fill-opacity="1">
    <g transform="translate(174.532855, 201.575641)">
      <g>
        <path d="M 23.40625 -38.546875 L 32.28125 -38.546875 L 32.28125 0 L 24.046875 0 L 24.046875 -2.734375 C 21.972656 -0.441406 19.0625 0.703125 15.3125 0.703125 C 13.03125 0.703125 10.832031 0.101562 8.71875 -1.09375 C 6.613281 -2.289062 4.898438 -4.003906 3.578125 -6.234375 C 2.265625 -8.460938 1.609375 -11.023438 1.609375 -13.921875 C 1.609375 -16.816406 2.265625 -19.378906 3.578125 -21.609375 C 4.898438 -23.835938 6.613281 -25.550781 8.71875 -26.75 C 10.832031 -27.945312 13.03125 -28.546875 15.3125 -28.546875 C 18.707031 -28.546875 21.40625 -27.597656 23.40625 -25.703125 Z M 17.140625 -7.234375 C 19.066406 -7.234375 20.660156 -7.863281 21.921875 -9.125 C 23.191406 -10.394531 23.828125 -11.992188 23.828125 -13.921875 C 23.828125 -15.847656 23.191406 -17.441406 21.921875 -18.703125 C 20.660156 -19.972656 19.066406 -20.609375 17.140625 -20.609375 C 15.210938 -20.609375 13.613281 -19.972656 12.34375 -18.703125 C 11.070312 -17.441406 10.4375 -15.847656 10.4375 -13.921875 C 10.4375 -11.992188 11.070312 -10.394531 12.34375 -9.125 C 13.613281 -7.863281 15.210938 -7.234375 17.140625 -7.234375 Z M 17.140625 -7.234375 " />
      </g>
    </g>
  </g>
  <g fill="#ffa31a" fill-opacity="1">
    <g transform="translate(200.387847, 201.575641)">
      <g>
        <path d="M 29.015625 -23.34375 L 31.75 -37.484375 L 41.125 -37.484375 L 33.953125 0 L 24.578125 0 L 27.421875 -14.890625 L 13.921875 -14.890625 L 11.078125 0 L 1.71875 0 L 8.890625 -37.484375 L 18.265625 -37.484375 L 15.53125 -23.34375 Z M 29.015625 -23.34375 " />
      </g>
    </g>
  </g>
  <g fill="#ffa31a" fill-opacity="1">
    <g transform="translate(239.197504, 201.575641)">
      <g>
        <path d="M 15.578125 0.703125 C 12.941406 0.703125 10.664062 0.21875 8.75 -0.75 C 6.84375 -1.71875 5.378906 -3.054688 4.359375 -4.765625 C 3.347656 -6.472656 2.84375 -8.453125 2.84375 -10.703125 C 2.84375 -11.703125 2.945312 -12.757812 3.15625 -13.875 L 5.84375 -27.84375 L 14.71875 -27.84375 L 11.828125 -12.75 C 11.765625 -12.175781 11.734375 -11.78125 11.734375 -11.5625 C 11.734375 -10.3125 12.101562 -9.285156 12.84375 -8.484375 C 13.59375 -7.679688 14.59375 -7.28125 15.84375 -7.28125 C 17.164062 -7.28125 18.28125 -7.722656 19.1875 -8.609375 C 20.101562 -9.503906 20.6875 -10.613281 20.9375 -11.9375 L 23.9375 -27.84375 L 32.875 -27.84375 L 29.828125 -11.671875 C 29.109375 -7.992188 27.550781 -5.007812 25.15625 -2.71875 C 22.769531 -0.4375 19.578125 0.703125 15.578125 0.703125 Z M 15.578125 0.703125 " />
      </g>
    </g>
  </g>
  <g fill="#ffa31a" fill-opacity="1">
    <g transform="translate(270.512791, 201.575641)">
      <g>
        <path d="M 22.484375 -28.546875 C 24.660156 -28.546875 26.664062 -27.972656 28.5 -26.828125 C 30.34375 -25.679688 31.804688 -24.117188 32.890625 -22.140625 C 33.984375 -20.160156 34.53125 -17.972656 34.53125 -15.578125 C 34.53125 -12.691406 33.84375 -10 32.46875 -7.5 C 31.101562 -5 29.222656 -3.003906 26.828125 -1.515625 C 24.429688 -0.0351562 21.789062 0.703125 18.90625 0.703125 C 16.757812 0.703125 14.945312 0.328125 13.46875 -0.421875 C 11.988281 -1.171875 10.816406 -2.132812 9.953125 -3.3125 L 9.3125 0 L 1.015625 0 L 8.453125 -38.546875 L 17.34375 -38.546875 L 15.046875 -26.1875 C 17.003906 -27.757812 19.484375 -28.546875 22.484375 -28.546875 Z M 18.265625 -7.234375 C 19.765625 -7.234375 21.070312 -7.585938 22.1875 -8.296875 C 23.3125 -9.015625 24.171875 -9.960938 24.765625 -11.140625 C 25.359375 -12.316406 25.65625 -13.546875 25.65625 -14.828125 C 25.65625 -16.429688 25.082031 -17.796875 23.9375 -18.921875 C 22.789062 -20.046875 21.328125 -20.609375 19.546875 -20.609375 C 18.046875 -20.609375 16.738281 -20.242188 15.625 -19.515625 C 14.519531 -18.785156 13.671875 -17.835938 13.078125 -16.671875 C 12.492188 -15.515625 12.203125 -14.296875 12.203125 -13.015625 C 12.203125 -11.410156 12.773438 -10.046875 13.921875 -8.921875 C 15.066406 -7.796875 16.515625 -7.234375 18.265625 -7.234375 Z M 18.265625 -7.234375 " />
      </g>
    </g>
  </g>
  <g fill="#cb6ce6" fill-opacity="1">
    <g transform="translate(141.332441, 216.403961)">
      <g>
        <path d="M 4.265625 0 L 2.671875 -5.546875 L 2.3125 0 L 0.453125 0 L 0.671875 -3.546875 C 0.753906 -4.984375 0.820312 -6.164062 0.875 -7.09375 L 4.03125 -7.09375 L 5.15625 -2.9375 L 6.265625 -7.09375 L 9.4375 -7.09375 C 9.476562 -6.164062 9.546875 -4.984375 9.640625 -3.546875 L 9.859375 0 L 7.984375 0 L 7.640625 -5.546875 L 6.03125 0 Z M 4.265625 0 " />
      </g>
    </g>
  </g>
  <g fill="#cb6ce6" fill-opacity="1">
    <g transform="translate(152.663189, 216.403961)">
      <g>
        <path d="M 3.984375 0.078125 C 2.742188 0.078125 1.789062 -0.332031 1.125 -1.15625 C 0.59375 -1.8125 0.328125 -2.585938 0.328125 -3.484375 C 0.328125 -4.429688 0.59375 -5.253906 1.125 -5.953125 C 1.789062 -6.796875 2.742188 -7.21875 3.984375 -7.21875 C 5.203125 -7.21875 6.15625 -6.796875 6.84375 -5.953125 C 7.363281 -5.273438 7.625 -4.453125 7.625 -3.484375 C 7.625 -2.578125 7.363281 -1.800781 6.84375 -1.15625 C 6.15625 -0.332031 5.203125 0.078125 3.984375 0.078125 Z M 2.671875 -1.9375 C 2.992188 -1.550781 3.425781 -1.359375 3.96875 -1.359375 C 4.519531 -1.359375 4.957031 -1.550781 5.28125 -1.9375 C 5.601562 -2.320312 5.765625 -2.835938 5.765625 -3.484375 C 5.765625 -4.160156 5.601562 -4.710938 5.28125 -5.140625 C 4.96875 -5.578125 4.53125 -5.796875 3.96875 -5.796875 C 3.414062 -5.796875 2.976562 -5.578125 2.65625 -5.140625 C 2.34375 -4.710938 2.1875 -4.160156 2.1875 -3.484375 C 2.1875 -2.835938 2.347656 -2.320312 2.671875 -1.9375 Z M 2.671875 -1.9375 " />
      </g>
    </g>
  </g>
  <g fill="#cb6ce6" fill-opacity="1">
    <g transform="translate(161.643206, 216.403961)">
      <g>
        <path d="M 0.5625 -7.09375 L 3.390625 -7.09375 C 4.617188 -7.09375 5.566406 -6.703125 6.234375 -5.921875 C 6.753906 -5.285156 7.015625 -4.492188 7.015625 -3.546875 C 7.015625 -2.640625 6.753906 -1.863281 6.234375 -1.21875 C 5.554688 -0.40625 4.609375 0 3.390625 0 L 0.5625 0 Z M 2.4375 -5.65625 L 2.4375 -1.4375 L 3.546875 -1.4375 C 4.066406 -1.4375 4.460938 -1.625 4.734375 -2 C 5.015625 -2.382812 5.15625 -2.898438 5.15625 -3.546875 C 5.15625 -4.953125 4.617188 -5.65625 3.546875 -5.65625 Z M 2.4375 -5.65625 " />
      </g>
    </g>
  </g>
  <g fill="#cb6ce6" fill-opacity="1">
    <g transform="translate(170.017361, 216.403961)">
      <g>
        <path d="M 0.5625 -7.09375 L 5.921875 -7.09375 L 5.921875 -5.65625 L 2.4375 -5.65625 L 2.4375 -4.25 L 5.078125 -4.25 L 5.078125 -2.78125 L 2.4375 -2.78125 L 2.4375 -1.4375 L 5.921875 -1.4375 L 5.921875 0 L 0.5625 0 Z M 0.5625 -7.09375 " />
      </g>
    </g>
  </g>
  <g fill="#cb6ce6" fill-opacity="1">
    <g transform="translate(177.349453, 216.403961)">
      <g>
        <path d="M 6.71875 -4.578125 C 6.71875 -4.171875 6.609375 -3.765625 6.390625 -3.359375 C 6.179688 -2.953125 5.867188 -2.625 5.453125 -2.375 L 6.578125 0 L 4.515625 0 L 3.546875 -2.0625 L 2.4375 -2.0625 L 2.4375 0 L 0.5625 0 L 0.5625 -7.09375 L 3.875 -7.09375 C 4.8125 -7.09375 5.519531 -6.851562 6 -6.375 C 6.476562 -5.894531 6.71875 -5.296875 6.71875 -4.578125 Z M 2.4375 -3.484375 L 3.78125 -3.484375 C 4.09375 -3.484375 4.347656 -3.582031 4.546875 -3.78125 C 4.753906 -3.976562 4.859375 -4.238281 4.859375 -4.5625 C 4.859375 -4.894531 4.753906 -5.160156 4.546875 -5.359375 C 4.347656 -5.554688 4.09375 -5.65625 3.78125 -5.65625 L 2.4375 -5.65625 Z M 2.4375 -3.484375 " />
      </g>
    </g>
  </g>
  <g fill="#cb6ce6" fill-opacity="1">
    <g transform="translate(185.360099, 216.403961)">
      <g>
        <path d="M 2.4375 -4.3125 L 2.4375 0 L 0.5625 0 L 0.5625 -7.09375 L 2.671875 -7.09375 L 5.46875 -2.890625 L 5.46875 -7.09375 L 7.328125 -7.09375 L 7.328125 0 L 5.28125 0 Z M 2.4375 -4.3125 " />
      </g>
    </g>
  </g>
  <g fill="#cb6ce6" fill-opacity="1">
    <g transform="translate(194.291649, 216.403961)">
      <g />
    </g>
  </g>
  <g fill="#cb6ce6" fill-opacity="1">
    <g transform="translate(197.612964, 216.403961)">
      <g>
        <path d="M 7 -2.375 C 7 -1.601562 6.769531 -1.015625 6.3125 -0.609375 C 5.800781 -0.148438 4.96875 0.078125 3.8125 0.078125 C 2.914062 0.078125 2.148438 -0.09375 1.515625 -0.4375 C 0.878906 -0.789062 0.503906 -1.34375 0.390625 -2.09375 L 2.546875 -2.09375 C 2.597656 -1.601562 3.023438 -1.359375 3.828125 -1.359375 C 4.328125 -1.359375 4.664062 -1.410156 4.84375 -1.515625 C 5.03125 -1.617188 5.125 -1.804688 5.125 -2.078125 C 5.125 -2.148438 5.097656 -2.21875 5.046875 -2.28125 C 4.992188 -2.34375 4.910156 -2.394531 4.796875 -2.4375 C 4.691406 -2.488281 4.582031 -2.535156 4.46875 -2.578125 C 4.363281 -2.617188 4.222656 -2.660156 4.046875 -2.703125 C 3.878906 -2.742188 3.734375 -2.773438 3.609375 -2.796875 C 3.492188 -2.828125 3.34375 -2.859375 3.15625 -2.890625 C 2.96875 -2.921875 2.835938 -2.941406 2.765625 -2.953125 C 2.347656 -3.023438 1.96875 -3.140625 1.625 -3.296875 C 0.8125 -3.640625 0.40625 -4.175781 0.40625 -4.90625 C 0.40625 -5.644531 0.625 -6.203125 1.0625 -6.578125 C 1.5625 -7.003906 2.390625 -7.21875 3.546875 -7.21875 C 4.429688 -7.21875 5.195312 -7.023438 5.84375 -6.640625 C 6.5 -6.253906 6.828125 -5.71875 6.828125 -5.03125 L 4.65625 -5.03125 C 4.613281 -5.539062 4.242188 -5.796875 3.546875 -5.796875 C 3.148438 -5.796875 2.835938 -5.742188 2.609375 -5.640625 C 2.378906 -5.535156 2.265625 -5.414062 2.265625 -5.28125 C 2.265625 -5.175781 2.296875 -5.078125 2.359375 -4.984375 C 2.429688 -4.898438 2.539062 -4.820312 2.6875 -4.75 C 2.84375 -4.6875 2.984375 -4.628906 3.109375 -4.578125 C 3.242188 -4.535156 3.421875 -4.488281 3.640625 -4.4375 C 3.867188 -4.382812 4.035156 -4.347656 4.140625 -4.328125 C 4.253906 -4.304688 4.414062 -4.273438 4.625 -4.234375 C 5.03125 -4.148438 5.410156 -4.039062 5.765625 -3.90625 C 6.585938 -3.570312 7 -3.0625 7 -2.375 Z M 7 -2.375 " />
      </g>
    </g>
  </g>
  <g fill="#cb6ce6" fill-opacity="1">
    <g transform="translate(206.023479, 216.403961)">
      <g>
        <path d="M 4.0625 0 L 2.1875 0 L 2.1875 -5.65625 L 0.140625 -5.65625 L 0.140625 -7.09375 L 6.109375 -7.09375 L 6.109375 -5.65625 L 4.0625 -5.65625 Z M 4.0625 0 " />
      </g>
    </g>
  </g>
  <g fill="#cb6ce6" fill-opacity="1">
    <g transform="translate(213.307093, 216.403961)">
      <g>
        <path d="M 6.71875 -4.578125 C 6.71875 -4.171875 6.609375 -3.765625 6.390625 -3.359375 C 6.179688 -2.953125 5.867188 -2.625 5.453125 -2.375 L 6.578125 0 L 4.515625 0 L 3.546875 -2.0625 L 2.4375 -2.0625 L 2.4375 0 L 0.5625 0 L 0.5625 -7.09375 L 3.875 -7.09375 C 4.8125 -7.09375 5.519531 -6.851562 6 -6.375 C 6.476562 -5.894531 6.71875 -5.296875 6.71875 -4.578125 Z M 2.4375 -3.484375 L 3.78125 -3.484375 C 4.09375 -3.484375 4.347656 -3.582031 4.546875 -3.78125 C 4.753906 -3.976562 4.859375 -4.238281 4.859375 -4.5625 C 4.859375 -4.894531 4.753906 -5.160156 4.546875 -5.359375 C 4.347656 -5.554688 4.09375 -5.65625 3.78125 -5.65625 L 2.4375 -5.65625 Z M 2.4375 -3.484375 " />
      </g>
    </g>
  </g>
  <g fill="#cb6ce6" fill-opacity="1">
    <g transform="translate(221.317739, 216.403961)">
      <g>
        <path d="M 0.5625 -7.09375 L 5.921875 -7.09375 L 5.921875 -5.65625 L 2.4375 -5.65625 L 2.4375 -4.25 L 5.078125 -4.25 L 5.078125 -2.78125 L 2.4375 -2.78125 L 2.4375 -1.4375 L 5.921875 -1.4375 L 5.921875 0 L 0.5625 0 Z M 0.5625 -7.09375 " />
      </g>
    </g>
  </g>
  <g fill="#cb6ce6" fill-opacity="1">
    <g transform="translate(228.649831, 216.403961)">
      <g>
        <path d="M 7.546875 0 L 5.578125 0 L 5.078125 -1.4375 L 2.5625 -1.4375 L 2.0625 0 L 0.078125 0 L 2.40625 -7.09375 L 5.21875 -7.09375 Z M 4.765625 -2.90625 L 3.8125 -5.8125 L 2.875 -2.90625 Z M 4.765625 -2.90625 " />
      </g>
    </g>
  </g>
  <g fill="#cb6ce6" fill-opacity="1">
    <g transform="translate(237.314805, 216.403961)">
      <g>
        <path d="M 4.265625 0 L 2.671875 -5.546875 L 2.3125 0 L 0.453125 0 L 0.671875 -3.546875 C 0.753906 -4.984375 0.820312 -6.164062 0.875 -7.09375 L 4.03125 -7.09375 L 5.15625 -2.9375 L 6.265625 -7.09375 L 9.4375 -7.09375 C 9.476562 -6.164062 9.546875 -4.984375 9.640625 -3.546875 L 9.859375 0 L 7.984375 0 L 7.640625 -5.546875 L 6.03125 0 Z M 4.265625 0 " />
      </g>
    </g>
  </g>
  <g fill="#cb6ce6" fill-opacity="1">
    <g transform="translate(248.645548, 216.403961)">
      <g>
        <path d="M 0.578125 -7.09375 L 2.453125 -7.09375 L 2.453125 0 L 0.578125 0 Z M 0.578125 -7.09375 " />
      </g>
    </g>
  </g>
  <g fill="#cb6ce6" fill-opacity="1">
    <g transform="translate(252.706003, 216.403961)">
      <g>
        <path d="M 2.4375 -4.3125 L 2.4375 0 L 0.5625 0 L 0.5625 -7.09375 L 2.671875 -7.09375 L 5.46875 -2.890625 L 5.46875 -7.09375 L 7.328125 -7.09375 L 7.328125 0 L 5.28125 0 Z M 2.4375 -4.3125 " />
      </g>
    </g>
  </g>
  <g fill="#cb6ce6" fill-opacity="1">
    <g transform="translate(261.637555, 216.403961)">
      <g>
        <path d="M 4.03125 0.078125 C 2.789062 0.078125 1.832031 -0.332031 1.15625 -1.15625 C 0.601562 -1.8125 0.328125 -2.585938 0.328125 -3.484375 C 0.328125 -4.441406 0.597656 -5.265625 1.140625 -5.953125 C 1.816406 -6.796875 2.773438 -7.21875 4.015625 -7.21875 C 4.984375 -7.21875 5.773438 -6.988281 6.390625 -6.53125 C 7.003906 -6.082031 7.367188 -5.476562 7.484375 -4.71875 L 5.578125 -4.71875 C 5.578125 -5.0625 5.4375 -5.328125 5.15625 -5.515625 C 4.882812 -5.703125 4.546875 -5.796875 4.140625 -5.796875 C 3.535156 -5.796875 3.054688 -5.582031 2.703125 -5.15625 C 2.359375 -4.726562 2.1875 -4.171875 2.1875 -3.484375 C 2.1875 -2.835938 2.351562 -2.320312 2.6875 -1.9375 C 3.019531 -1.550781 3.460938 -1.359375 4.015625 -1.359375 C 4.535156 -1.359375 4.929688 -1.441406 5.203125 -1.609375 C 5.484375 -1.773438 5.691406 -2.0625 5.828125 -2.46875 L 4.578125 -2.46875 L 4.578125 -3.828125 L 7.4375 -3.828125 L 7.4375 0 L 6.078125 0 L 6.03125 -0.578125 C 5.519531 -0.140625 4.851562 0.078125 4.03125 0.078125 Z M 4.03125 0.078125 " />
      </g>
    </g>
  </g>
  <g fill="#cb6ce6" fill-opacity="1">
    <g transform="translate(270.65392, 216.403961)">
      <g />
    </g>
  </g>
  <g fill="#cb6ce6" fill-opacity="1">
    <g transform="translate(273.975235, 216.403961)">
      <g>
        <path d="M 7.546875 0 L 5.578125 0 L 5.078125 -1.4375 L 2.5625 -1.4375 L 2.0625 0 L 0.078125 0 L 2.40625 -7.09375 L 5.21875 -7.09375 Z M 4.765625 -2.90625 L 3.8125 -5.8125 L 2.875 -2.90625 Z M 4.765625 -2.90625 " />
      </g>
    </g>
  </g>
  <g fill="#cb6ce6" fill-opacity="1">
    <g transform="translate(282.640209, 216.403961)">
      <g>
        <path d="M 0.5625 0 L 0.5625 -7.09375 L 3.796875 -7.09375 C 4.734375 -7.09375 5.453125 -6.847656 5.953125 -6.359375 C 6.460938 -5.878906 6.71875 -5.285156 6.71875 -4.578125 C 6.71875 -3.878906 6.460938 -3.28125 5.953125 -2.78125 C 5.453125 -2.289062 4.734375 -2.046875 3.796875 -2.046875 L 2.4375 -2.046875 L 2.4375 0 Z M 2.4375 -3.484375 L 3.78125 -3.484375 C 4.09375 -3.484375 4.347656 -3.582031 4.546875 -3.78125 C 4.753906 -3.976562 4.859375 -4.238281 4.859375 -4.5625 C 4.859375 -4.894531 4.753906 -5.160156 4.546875 -5.359375 C 4.347656 -5.554688 4.09375 -5.65625 3.78125 -5.65625 L 2.4375 -5.65625 Z M 2.4375 -3.484375 " />
      </g>
    </g>
  </g>
  <g fill="#cb6ce6" fill-opacity="1">
    <g transform="translate(290.59027, 216.403961)">
      <g>
        <path d="M 0.5625 0 L 0.5625 -7.09375 L 3.796875 -7.09375 C 4.734375 -7.09375 5.453125 -6.847656 5.953125 -6.359375 C 6.460938 -5.878906 6.71875 -5.285156 6.71875 -4.578125 C 6.71875 -3.878906 6.460938 -3.28125 5.953125 -2.78125 C 5.453125 -2.289062 4.734375 -2.046875 3.796875 -2.046875 L 2.4375 -2.046875 L 2.4375 0 Z M 2.4375 -3.484375 L 3.78125 -3.484375 C 4.09375 -3.484375 4.347656 -3.582031 4.546875 -3.78125 C 4.753906 -3.976562 4.859375 -4.238281 4.859375 -4.5625 C 4.859375 -4.894531 4.753906 -5.160156 4.546875 -5.359375 C 4.347656 -5.554688 4.09375 -5.65625 3.78125 -5.65625 L 2.4375 -5.65625 Z M 2.4375 -3.484375 " />
      </g>
    </g>
  </g>
</svg>