<svg xmlns="http://www.w3.org/2000/svg" xmlns:xlink="http://www.w3.org/1999/xlink" width="500" zoomAndPan="magnify" viewBox="0 0 375 374.999991" height="500" preserveAspectRatio="xMidYMid meet" version="1.0"><defs><g/><clipPath id="bad216a164"><path d="M 46.683594 37.5 L 330.960938 37.5 L 330.960938 321.777344 L 46.683594 321.777344 Z M 46.683594 37.5 " clip-rule="nonzero"/></clipPath></defs><g clip-path="url(#bad216a164)"><path fill="#ffa31a" d="M 46.683594 37.5 L 330.960938 37.5 L 330.960938 321.777344 L 46.683594 321.777344 Z M 46.683594 37.5 " fill-opacity="1" fill-rule="nonzero"/></g><g fill="#000000" fill-opacity="1"><g transform="translate(55.527656, 245.969439)"><g><path d="M 68.140625 -45.5625 L 98.265625 -135.125 L 133.78125 -135.125 L 83.59375 0 L 52.125 0 L 1.9375 -135.125 L 37.84375 -135.125 Z M 68.140625 -45.5625 "/></g></g></g><g fill="#000000" fill-opacity="1"><g transform="translate(183.707128, 245.969439)"><g><path d="M 98.0625 -84.171875 L 98.0625 -135.125 L 131.84375 -135.125 L 131.84375 0 L 98.0625 0 L 98.0625 -53.671875 L 49.609375 -53.671875 L 49.609375 0 L 15.828125 0 L 15.828125 -135.125 L 49.609375 -135.125 L 49.609375 -84.171875 Z M 98.0625 -84.171875 "/></g></g></g></svg>